<svg width="111" height="46" viewBox="0 0 111 46" fill="none" xmlns="http://www.w3.org/2000/svg">
<g clip-path="url(#clip0_390_2029)">
<path fill-rule="evenodd" clip-rule="evenodd" d="M0 8.6479V28.178C0 29.2664 2.45269 30.7281 3.89915 31.1013C6.41473 31.7543 11.7603 31.1635 14.0244 30.2616C19.0241 28.3024 21.634 24.5394 21.634 19.066C21.634 14.028 20.3448 9.79856 15.911 7.06186C12.6093 5.00934 6.00595 4.07638 2.45269 5.88011C1.66657 6.31549 0 7.68384 0 8.6479ZM91.8502 10.4827V16.5159C91.8502 16.5159 97.4788 17.0135 97.6674 13.6237C97.8561 10.265 91.8502 10.4827 91.8502 10.4827ZM5.88017 11.8511C5.88017 10.887 6.28895 10.576 7.26374 10.4516C11.4144 9.86076 16.1312 13.9036 15.7538 18.7861C15.4079 23.8863 11.949 26.5608 7.10652 26.3431C6.19462 26.312 5.81728 25.5346 5.81728 24.9437L5.88017 11.8511ZM104.68 31.2568C106.472 31.2568 107.918 31.1946 109.239 29.9195C109.962 29.2353 110.811 27.9603 110.811 26.623V9.89186C110.811 9.23878 110.56 8.52351 110.34 8.05703C109.554 6.53318 107.981 5.25813 106 5.25813H104.711V31.2568H104.68ZM73.4235 26.4675C72.7632 26.4675 71.9771 26.2809 71.5368 26.0943C69.9646 25.4724 68.6754 23.5131 68.6754 22.0515V15.8006C68.6754 14.339 68.7383 13.1572 68.7383 11.6956C68.4867 11.8511 68.015 12.7218 67.8263 13.0328C67.5119 13.5304 67.2289 13.9658 66.9459 14.4634C66.6943 14.8988 62.638 21.1807 62.5751 21.4917C62.5122 21.8027 62.7323 23.2954 62.7952 23.5753C63.0153 24.8815 63.3926 25.9699 63.9586 26.9651C64.4932 27.9292 65.1535 28.7999 66.0025 29.5152C67.732 30.9769 70.3419 31.9409 72.7632 31.9409C75.2473 31.9409 77.0082 31.8476 79.1465 30.5726C80.9703 29.4841 82.5425 27.8981 83.3286 25.9078C83.8003 24.726 84.2091 23.3887 84.2091 21.7094V5.28923C82.6683 5.28923 81.662 5.32033 80.4043 6.22219C79.6181 6.78197 79.115 7.52835 78.8006 8.52351C78.0773 10.7626 79.0207 21.8027 78.3289 23.5753C77.5428 25.5657 75.5303 26.4675 73.4235 26.4675ZM85.8128 31.2568V5.28923H92.6048C96.6298 5.28923 100.592 6.47099 102.478 9.54977C103.265 10.8559 103.485 12.1932 103.485 13.8725C103.485 16.6092 101.975 18.7239 100.277 19.8124C97.5731 21.585 95.1833 21.8649 91.9445 21.8649V26.5608C91.9445 27.7426 91.2527 29.142 90.4037 29.8884C88.9258 31.2257 87.6366 31.2568 85.8128 31.2568ZM22.483 31.2568H23.5521C26.1935 31.2568 28.0487 29.4841 28.5204 27.3694C28.7405 26.4364 28.6147 20.1545 28.6147 18.6617L33.1113 25.0992C33.6459 25.8456 34.1176 26.4986 34.6207 27.2761C35.0295 27.867 35.7212 28.9554 36.2244 29.3286C37.9538 30.6348 39.1173 31.2568 41.6643 31.2568C42.136 31.2568 44.683 31.1324 45.1232 31.0391L41.2555 26.0632C41.0354 25.7834 40.8467 25.5035 40.5952 25.2236C40.3436 24.9126 40.1864 24.6949 39.9348 24.3839C38.8657 22.9845 35.6584 18.9416 34.7465 17.6355C34.998 17.48 35.281 17.0446 35.4697 16.7958L44.3371 6.0045C44.8717 5.35143 44.8402 5.56912 43.9598 5.44472C40.8782 5.07154 37.7966 5.22703 35.5326 7.46615C35.1552 7.83933 32.8598 10.9803 32.3567 11.6334C32.0422 12.0688 28.7405 16.5159 28.5518 16.6714C28.5518 15.1476 28.7091 9.89186 28.3632 8.8034C28.0173 7.80823 27.4827 6.96857 26.728 6.40879C25.2501 5.25813 24.2125 5.32033 22.4516 5.32033V31.2568H22.483Z" fill="#011253"/>
<path fill-rule="evenodd" clip-rule="evenodd" d="M54.7139 19.9057C54.5252 19.7813 54.2422 19.3148 54.1165 19.0971C51.6952 15.4896 48.9595 11.7267 46.5383 8.08811C46.3182 7.77712 46.1609 7.52833 45.9723 7.24845C45.7836 6.96856 45.4692 6.65757 45.3748 6.34658C45.1233 6.40878 44.9975 6.68867 44.7774 6.96856C44.5887 7.21735 44.4315 7.40394 44.2114 7.68383C44.0227 7.93262 43.834 8.11921 43.6139 8.368L41.8844 10.4827C41.5071 10.9492 41.0669 11.4157 40.7524 11.8822C40.8153 12.0999 41.004 12.3176 41.1612 12.5352C42.5762 14.4634 44.8403 17.5111 46.0981 19.377C46.2553 19.5947 46.3811 19.7502 46.5383 19.999L52.3556 28.0536C52.7643 28.5822 54.8082 31.5677 55.0912 31.7543C56.8522 29.1731 58.8017 25.7211 60.5626 23.0777C61.789 21.2429 63.0153 19.0971 64.2417 17.2312C65.4366 15.4585 66.6944 13.2505 67.8893 11.4468C68.8326 9.98514 68.8955 8.3369 68.8955 6.59537C68.8955 4.85384 68.1723 3.0501 67.2918 1.74395C67.1346 1.43296 66.5686 0.655494 66.3485 0.5C65.5938 1.89945 63.6128 5.13372 62.7323 6.56427L56.1918 17.5111C56.0346 17.7598 54.934 19.7502 54.7139 19.9057Z" fill="#FA0303"/>
<path fill-rule="evenodd" clip-rule="evenodd" d="M2.7357 44.0384C4.24505 44.0384 5.28272 42.9499 5.28272 41.4261V37.7253H4.71672V41.4261C4.71672 42.6389 3.89915 43.5097 2.7357 43.5097C1.57224 43.5097 0.754677 42.6389 0.754677 41.4261V37.7253H0.157227V41.4261C0.157227 42.981 1.22635 44.0384 2.7357 44.0384ZM8.74165 39.1558C8.04986 39.1558 7.45241 39.529 7.20085 40.0266V39.2491H6.63485V43.914H7.20085V40.9285C7.20085 40.2132 7.86119 39.6223 8.67876 39.6223C9.43343 39.6223 9.96799 40.1821 9.96799 40.9596V43.8829H10.534V40.9285C10.534 39.9022 9.77932 39.1558 8.74165 39.1558ZM15.4394 39.2491V40.151C15.062 39.529 14.4331 39.1558 13.647 39.1558C12.4207 39.1558 11.5088 40.1199 11.5088 41.3639C11.5088 42.6389 12.4207 43.603 13.647 43.603C14.4331 43.603 15.0935 43.2298 15.4394 42.6078V43.4475C15.4394 44.4115 14.7476 44.9713 13.6785 44.9713C13.081 44.9713 12.4836 44.7536 12.0748 44.4115L11.8232 44.878C12.2635 45.2512 12.9867 45.5 13.7414 45.5C15.062 45.5 16.0054 44.6603 16.0054 43.4475V39.2802H15.4394V39.2491ZM13.7414 43.0743C12.798 43.0743 12.0748 42.3279 12.0748 41.3639C12.0748 40.3998 12.798 39.6534 13.7414 39.6534C14.7162 39.6534 15.4394 40.3687 15.4394 41.3639C15.4394 42.3901 14.7162 43.0743 13.7414 43.0743ZM20.9737 39.2491V40.151C20.5963 39.529 19.9674 39.1558 19.1813 39.1558C17.955 39.1558 17.0431 40.1199 17.0431 41.3639C17.0431 42.6389 17.955 43.603 19.1813 43.603C19.9674 43.603 20.6278 43.2298 20.9737 42.6078V43.4475C20.9737 44.4115 20.2819 44.9713 19.2128 44.9713C18.6153 44.9713 18.0179 44.7536 17.6091 44.4115L17.3575 44.878C17.7977 45.2512 18.521 45.5 19.2756 45.5C20.5963 45.5 21.5397 44.6603 21.5397 43.4475V39.2802H20.9737V39.2491ZM19.2756 43.0743C18.3323 43.0743 17.6091 42.3279 17.6091 41.3639C17.6091 40.3998 18.3323 39.6534 19.2756 39.6534C20.2504 39.6534 20.9737 40.3687 20.9737 41.3639C20.9737 42.3901 20.2819 43.0743 19.2756 43.0743ZM26.162 39.2491V42.2346C26.162 42.9499 25.5017 43.5408 24.6841 43.5408C23.9295 43.5408 23.3949 42.981 23.3949 42.2035V39.2802H22.8289V42.2968C22.8289 43.3231 23.5521 44.0695 24.5898 44.0695C25.2816 44.0695 25.879 43.6963 26.1306 43.1987V43.9762H26.7281V39.3113H26.162V39.2491ZM27.9858 43.9451H28.5518V37.632H27.9858V43.9451ZM32.451 43.9451H33.0484V41.6437H35.0295C36.3187 41.6437 37.2935 40.8352 37.2935 39.6845C37.2935 38.5339 36.3187 37.7253 35.0295 37.7253H32.451V43.9451ZM33.0484 41.084V38.254H34.9351C35.9728 38.254 36.7275 38.7827 36.7275 39.6534C36.7275 40.5242 36.0043 41.0529 34.9351 41.0529H33.0484V41.084ZM38.7714 40.2132V39.2491H38.2054V43.914H38.7714V41.3017C38.7714 40.3376 39.5261 39.6534 40.5952 39.6534V39.1247C39.7462 39.1558 39.0544 39.5912 38.7714 40.2132ZM43.4567 44.0384C44.7773 44.0384 45.9094 42.9188 45.9094 41.5816C45.9094 40.2443 44.7773 39.1247 43.4567 39.1247C42.136 39.1247 41.004 40.2443 41.004 41.5816C41.004 42.9188 42.136 44.0384 43.4567 44.0384ZM43.4567 43.5408C42.4504 43.5408 41.6014 42.67 41.6014 41.6126C41.6014 40.5553 42.4504 39.6845 43.4567 39.6845C44.4629 39.6845 45.3119 40.5553 45.3119 41.6126C45.3119 42.67 44.4629 43.5408 43.4567 43.5408ZM47.8589 38.6272C47.8589 38.2229 48.1105 37.943 48.4249 37.943C48.6451 37.943 48.8337 38.0052 48.9595 38.1296L49.2425 37.7253C48.9909 37.5387 48.6765 37.4143 48.362 37.4143C47.7332 37.4143 47.2615 37.9119 47.2615 38.5961V39.2491H46.5068V39.7778H47.2615V43.9451H47.8275V39.7778H49.0538V39.2491H47.8275V38.6272H47.8589ZM52.0096 43.5408C51.0348 43.5408 50.3116 42.7944 50.2173 41.8303H54.2108C54.2108 40.2132 53.3618 39.1558 51.9782 39.1558C50.689 39.1558 49.6513 40.2132 49.6513 41.5816C49.6513 42.981 50.7518 44.0384 52.0096 44.0384C52.7014 44.0384 53.5504 43.7585 53.9278 43.3231L53.5819 42.9499C53.2674 43.292 52.6071 43.5408 52.0096 43.5408ZM51.9782 39.6845C52.9844 39.6845 53.5504 40.3687 53.6448 41.3328H50.2173C50.3431 40.3376 51.0663 39.6845 51.9782 39.6845ZM56.8521 44.0384C57.7955 44.0384 58.5501 43.4786 58.5501 42.7011C58.5501 41.8925 57.8584 41.5815 57.0094 41.3017C56.0975 40.9907 55.7201 40.8041 55.7201 40.3998C55.7201 39.9333 56.1918 39.6534 56.7892 39.6534C57.2295 39.6534 57.7326 39.8089 58.2043 40.0888L58.4873 39.6534C57.9841 39.3424 57.3552 39.1247 56.7892 39.1247C55.8773 39.1247 55.1541 39.6534 55.1541 40.4309C55.1541 41.084 55.5943 41.4572 56.7263 41.7681C57.481 41.9858 57.9841 42.2035 57.9841 42.7322C57.9841 43.1987 57.5125 43.5097 56.8521 43.5097C56.3176 43.5097 55.7516 43.292 55.1856 42.9188L54.8711 43.3231C55.4686 43.7896 56.1918 44.0384 56.8521 44.0384ZM59.8079 38.3473C60.028 38.3473 60.2167 38.1607 60.2167 37.943C60.2167 37.7253 60.028 37.5387 59.8079 37.5387C59.5878 37.5387 59.3992 37.7253 59.3992 37.943C59.4306 38.1918 59.5878 38.3473 59.8079 38.3473ZM59.5249 43.9451H60.0909V39.2802H59.5249V43.9451ZM63.5184 44.0384C64.8391 44.0384 65.9711 42.9188 65.9711 41.5816C65.9711 40.2443 64.8391 39.1247 63.5184 39.1247C62.1977 39.1247 61.0657 40.2443 61.0657 41.5816C61.0657 42.9188 62.1977 44.0384 63.5184 44.0384ZM63.5184 43.5408C62.5122 43.5408 61.6632 42.67 61.6632 41.6126C61.6632 40.5553 62.5122 39.6845 63.5184 39.6845C64.5247 39.6845 65.3737 40.5553 65.3737 41.6126C65.3737 42.67 64.5247 43.5408 63.5184 43.5408ZM69.0527 39.1558C68.3609 39.1558 67.7635 39.529 67.5119 40.0266V39.2491H66.9459V43.914H67.5119V40.9285C67.5119 40.2132 68.1722 39.6223 68.9898 39.6223C69.7445 39.6223 70.279 40.1821 70.279 40.9596V43.8829H70.845V40.9285C70.845 39.9022 70.1218 39.1558 69.0527 39.1558ZM73.9581 39.1558C73.4864 39.1558 72.9204 39.2802 72.2915 39.6223L72.5116 40.0888C72.9519 39.84 73.4235 39.6845 73.9266 39.6845C74.9958 39.6845 75.3102 40.4309 75.3102 41.1151V41.3017C74.8071 41.1462 74.2411 41.0218 73.738 41.0218C72.6688 41.0218 71.8513 41.6437 71.8513 42.5767C71.8513 43.4786 72.5745 44.0695 73.5807 44.0695C74.2096 44.0695 74.9643 43.7585 75.3102 43.2298V43.9762H75.8762V41.1151C75.8762 39.9644 75.2159 39.1558 73.9581 39.1558ZM73.6436 43.5408C72.9519 43.5408 72.3858 43.1365 72.3858 42.5145C72.3858 41.9236 72.9833 41.4883 73.8009 41.4883C74.3354 41.4883 74.8385 41.5816 75.3102 41.737V42.4834C75.1215 43.1987 74.304 43.5408 73.6436 43.5408ZM77.1026 43.9451H77.6686V37.632H77.1026V43.9451ZM81.5992 43.9451H82.1966V37.7253H81.5992V43.9451ZM85.5612 39.1558C84.8694 39.1558 84.272 39.529 84.0204 40.0266V39.2491H83.4544V43.914H84.0204V40.9285C84.0204 40.2132 84.6807 39.6223 85.4983 39.6223C86.253 39.6223 86.7875 40.1821 86.7875 40.9596V43.8829H87.3535V40.9285C87.3535 39.9022 86.5989 39.1558 85.5612 39.1558ZM90.781 44.0384C92.1017 44.0384 93.2337 42.9188 93.2337 41.5816C93.2337 40.2443 92.1017 39.1247 90.781 39.1247C89.4604 39.1247 88.3283 40.2443 88.3283 41.5816C88.3283 42.9188 89.4289 44.0384 90.781 44.0384ZM90.781 43.5408C89.7748 43.5408 88.9258 42.67 88.9258 41.6126C88.9258 40.5553 89.7748 39.6845 90.781 39.6845C91.7873 39.6845 92.6363 40.5553 92.6363 41.6126C92.6048 42.67 91.7873 43.5408 90.781 43.5408ZM95.6235 43.9451H96.1266L98.1705 39.2802H97.5417L95.8751 43.2298L94.1771 39.2802H93.5482L95.6235 43.9451ZM100.497 39.1558C100.026 39.1558 99.4598 39.2802 98.8309 39.6223L99.051 40.0888C99.4912 39.84 99.9629 39.6845 100.466 39.6845C101.535 39.6845 101.85 40.4309 101.85 41.1151V41.3017C101.346 41.1462 100.78 41.0218 100.277 41.0218C99.2082 41.0218 98.3907 41.6437 98.3907 42.5767C98.3907 43.4786 99.1139 44.0695 100.12 44.0695C100.749 44.0695 101.504 43.7585 101.85 43.2298V43.9762H102.416V41.1151C102.384 39.9644 101.724 39.1558 100.497 39.1558ZM100.183 43.5408C99.4912 43.5408 98.9252 43.1365 98.9252 42.5145C98.9252 41.9236 99.5227 41.4883 100.34 41.4883C100.875 41.4883 101.378 41.5816 101.85 41.737V42.4834C101.629 43.1987 100.843 43.5408 100.183 43.5408ZM105.717 43.3231C105.592 43.4475 105.403 43.5097 105.183 43.5097C104.868 43.5097 104.617 43.2298 104.617 42.8255V39.7467H105.812V39.218H104.617V37.943H104.051V39.218H103.296V39.7467H104.051V42.8255C104.051 43.5097 104.522 44.0073 105.151 44.0073C105.466 44.0073 105.78 43.914 106.032 43.6963L105.717 43.3231ZM107.101 38.3473C107.321 38.3473 107.51 38.1607 107.51 37.943C107.51 37.7253 107.321 37.5387 107.101 37.5387C106.881 37.5387 106.692 37.7253 106.692 37.943C106.724 38.1918 106.881 38.3473 107.101 38.3473ZM106.818 43.9451H107.384V39.2802H106.818V43.9451ZM109.585 38.6272C109.585 38.2229 109.837 37.943 110.151 37.943C110.371 37.943 110.56 38.0052 110.686 38.1296L110.969 37.7253C110.717 37.5387 110.403 37.4143 110.088 37.4143C109.459 37.4143 108.988 37.9119 108.988 38.5961V39.2491H108.233V39.7778H108.988V43.9451H109.554V39.7778H110.78V39.2491H109.554V38.6272H109.585Z" fill="#011253"/>
</g>
<defs>
<clipPath id="clip0_390_2029">
<rect width="111" height="45" fill="white" transform="translate(0 0.5)"/>
</clipPath>
</defs>
</svg>
